<svg xmlns="http://www.w3.org/2000/svg" xmlns:xlink="http://www.w3.org/1999/xlink" id="Layer_1" x="0px" y="0px" viewBox="0 0 867.8 430.8" style="enable-background:new 0 0 867.8 430.8;" xml:space="preserve"><style type="text/css">	.st0{fill:#FFFFFF;}</style><g>	<path class="st0" d="M667.4,75c65.8-23.7,25.3-59,25.3-59s30,35.2-19.3,34.1C673.4,50.1,694,60.9,667.4,75z"></path>	<path class="st0" d="M670.2,76.1c49-11.6,69.4-63.9,105.2-76.1c-3,1.1-9.2-2.8-58.2,22.2c-9.4,4.7-18.2-1.9-20.8-4.3  C701.7,23.2,730.2,54.4,670.2,76.1z"></path>	<path class="st0" d="M696.3,17.9c-0.5-0.5-0.8-0.8-0.8-0.8S695.8,17.4,696.3,17.9z"></path>	<polygon class="st0" points="168.4,169.7 175.4,135.6 36.7,135.6 0,319.2 42.7,319.2 56.1,252.3 140.8,252.3 147.9,218.2   62.7,218.2 72.4,169.7  "></polygon>	<path class="st0" d="M245.2,212.7H267l-11.3,56.9c-0.9,4.7-1.3,8.8-1.3,12.3c0,12.2,4,21.9,12.1,28.8c8,7,18.7,10.5,32,10.5  c14.3,0,26-2.8,35.1-8.4l-6-29.1c-5.6,3.3-11.1,5-16.5,5c-10,0-14.9-4.5-14.9-13.6c0-2.4,0.2-4.4,0.5-5.8l11.3-56.6H343l6.3-31.5  h-35.1l6.8-34.4h-40.9l-6.8,34.4h-21.8L245.2,212.7z"></path>			<ellipse transform="matrix(0.9239 -0.3827 0.3827 0.9239 -34.2059 97.7971)" class="st0" cx="228.7" cy="134.9" rx="25.3" ry="25.3"></ellipse>	<path class="st0" d="M837.3,80c-8.7,3-16,7.8-22.2,14.4l3.4-16.8h-38.8l-28.1,141.1h40.9l13.6-68.2c2.6-12.9,7.6-22.5,15.1-28.6  c7.4-6.1,17.3-9.2,29.8-9.2c1.4,0,4.5,0.2,9.4,0.5l7.3-37.8C856.1,75.6,845.9,77.1,837.3,80z"></path>	<path class="st0" d="M733.9,76.9c-17.9,29.5-36.2,58.4-55.8,86.1c-3.5,5-7.1,9.9-10.7,14.8l-35-142.5h-42L490.3,189.9l-3.5-2.1l0,0  c-0.1-0.1-0.2-0.1-0.3-0.2l0,0l0,0c-6.4-3.6-14.1-6.4-23.2-8.5c-9.3-2.1-18.8-3.1-28.6-3.1c-21.2,0-38.2,4.4-51.3,13.1  c-13,8.7-19.5,20.9-19.5,36.5c0,8.9,2.4,16,7.2,21.1c4.8,5.2,10.5,8.9,17,11.1c6.6,2.3,14.9,4.4,25,6.3c8.9,1.7,15.4,3.4,19.4,5  c4,1.6,6,4.1,6,7.6c0,4.4-2.3,7.7-6.8,10.1c-4.5,2.4-11.5,3.5-20.7,3.5c-8.9,0-17.8-1.2-26.6-3.7c-8.8-2.4-16.3-5.7-22.4-9.7  l-15.7,29.6c6.1,4.4,14.6,7.9,25.6,10.6c10.9,2.7,22.5,4.1,34.7,4.1c21,0,38.1-4.3,51.3-12.9c13.2-8.6,19.8-20.7,19.8-36.5  c0-8.7-2.4-15.6-7.1-20.7c-4.7-5.1-10.3-8.7-16.7-10.9c-6.4-2.2-14.6-4.2-24.5-6.2c-9.4-1.9-16.2-3.7-20.2-5.4c-4-1.7-6-4.3-6-8  c0-4,2.3-7.3,7-10c4.6-2.6,11.4-3.9,20.3-3.9c6.9,0,13.4,0.7,19.5,2c12.3,3.2,21.1,9.3,21.8,9.7l0,0.1h0.1l0,0l0,0H517l23.9-39.3  h85.5l8.7,39.3h0.1c-7.6,9-15.4,17.9-23.4,26.4c-5.9,6.4-12,12.6-18.3,18.6c-6.2,6.1-12.5,11.9-18.9,17.6  c-12.9,11.3-26.2,21.9-40.1,31.5c-27.7,19.2-57.5,34.3-88.6,43.7c-15.6,4.6-31.4,8.1-47.4,9.7c-4,0.4-8,0.8-12,1l-6.1,0.3l-6.3,0.2  c-8.5,0.3-16.8,0.2-25.1,0.1c-16.5-0.5-32.8-2-47.9-5.3c-7.6-1.5-14.9-3.6-21.8-6.2c-6.9-2.6-13.4-5.5-19.4-9.1  c-5.9-3.6-11.4-7.6-16.3-12.3c-4.9-4.6-9.1-9.9-12.8-15.8c-7.4-11.7-12.3-26.1-14.9-41.7c-2.5-15.7-3-32.5-1.8-49.5  c0.5-8.5,1.5-17.1,2.8-25.8c0.7-4.3,1.3-8.6,2.1-12.9c0.4-2.2,0.8-4.3,1.2-6.4l1.2-5.7h-22.8c-0.8,1.4-1.5,2.9-2.3,4.4  c-2.1,4.3-4.2,8.6-6,13c-3.8,8.8-7,17.9-9.8,27.2c-5.5,18.6-9,38.3-9,58.9c0,20.5,3.5,42.3,13.1,62.8c2.3,5.1,5.1,10.1,8.1,14.9  c3.1,4.8,6.5,9.4,10.2,13.8c7.4,8.8,15.9,16.5,25,23c18.3,13.1,38.7,21.4,58.7,26.7c10,2.7,20.2,4.6,30.1,5.9  c10,1.4,19.9,2.3,29.8,2.7c9.8,0.4,19.7,0.5,29.3,0.1c9.5-0.2,19.9-1,29.8-2.2c20-2.5,39.8-6.9,58.8-13.4  c38.1-12.7,73-32.7,103.5-56.9c15.2-12.1,29.6-25.1,42.9-38.9c6.6-6.9,13.1-14,19.3-21.2c6.2-7.3,12.1-14.7,17.9-22.2  c23-30.1,42.6-62.2,59.3-95.4c16.7-33.2,32-68.5,43.1-103.6h-3.5H733.9z M560.5,147.2l43.3-70.8l15.5,70.8H560.5z"></path></g></svg>